<svg xmlns="http://www.w3.org/2000/svg" version="1.1" xmlns:xlink="http://www.w3.org/1999/xlink" xmlns:svgjs="http://svgjs.dev/svgjs" width="1000" height="1000" viewBox="0 0 1000 1000"><rect width="1000" height="1000" fill="#ffffff"></rect><g transform="matrix(0.7,0,0,0.7,149.57575757575756,375.497232400524)"><svg viewBox="0 0 396 141" data-background-color="#ffffff" preserveAspectRatio="xMidYMid meet" height="356" width="1000" xmlns="http://www.w3.org/2000/svg" xmlns:xlink="http://www.w3.org/1999/xlink"><g id="tight-bounds" transform="matrix(1,0,0,1,0.2400000000000091,-0.055015122286903306)"><svg viewBox="0 0 395.52 141.11003024457378" height="141.11003024457378" width="395.52"><g><svg viewBox="0 0 685.1213293600553 244.43135999999998" height="141.11003024457378" width="395.52"><g transform="matrix(1,0,0,1,0,26.54740080165861)"><svg viewBox="0 0 395.52 191.33655839668276" height="191.33655839668276" width="395.52"><g><svg viewBox="0 0 395.52 191.33655839668276" height="191.33655839668276" width="395.52"><g><svg viewBox="0 0 395.52 191.33655839668276" height="191.33655839668276" width="395.52"><g transform="matrix(1,0,0,1,0,0)"><svg width="395.52" viewBox="3.0999999046325684 -35 72.3499984741211 35" height="191.33655839668276" data-palette-color="#ee3e38"><path d="M11.95 0L4.45 0Q3.9 0 3.5-0.38 3.1-0.75 3.1-1.3L3.1-1.3 3.1-33.7Q3.1-34.25 3.5-34.63 3.9-35 4.45-35L4.45-35 11.1-35Q12-35 12.45-34.5 12.9-34 13.05-33.8L13.05-33.8 21.05-19.9 29.05-33.8Q29.2-34 29.65-34.5 30.1-35 31-35L31-35 37.65-35Q38.2-35 38.58-34.63 38.95-34.25 38.95-33.7L38.95-33.7 38.95-1.3Q38.95-0.75 38.58-0.38 38.2 0 37.65 0L37.65 0 30.15 0Q29.6 0 29.23-0.38 28.85-0.75 28.85-1.3L28.85-1.3 28.85-17.5 24.35-9.6Q24.1-9.2 23.7-8.8 23.3-8.4 22.55-8.4L22.55-8.4 19.5-8.4Q18.8-8.4 18.4-8.8 18-9.2 17.75-9.6L17.75-9.6 13.25-17.5 13.25-1.3Q13.25-0.75 12.88-0.38 12.5 0 11.95 0L11.95 0ZM54.05 0L46.5 0Q46 0 45.6-0.38 45.2-0.75 45.2-1.3L45.2-1.3 45.2-33.7Q45.2-34.25 45.6-34.63 46-35 46.5-35L46.5-35 53.15-35Q54.05-35 54.45-34.6 54.85-34.2 55-33.95L55-33.95 65.3-17.4 65.3-33.7Q65.3-34.25 65.7-34.63 66.1-35 66.65-35L66.65-35 74.15-35Q74.7-35 75.07-34.63 75.45-34.25 75.45-33.7L75.45-33.7 75.45-1.3Q75.45-0.75 75.07-0.38 74.7 0 74.15 0L74.15 0 67.55 0Q66.65 0 66.22-0.43 65.8-0.85 65.65-1.05L65.65-1.05 55.35-16.7 55.35-1.3Q55.35-0.75 54.97-0.38 54.6 0 54.05 0L54.05 0Z" opacity="1" transform="matrix(1,0,0,1,0,0)" fill="#ee3e38" class="undefined-text-0" data-fill-palette-color="primary" id="text-0"></path></svg></g></svg></g></svg></g></svg></g><g transform="matrix(1,0,0,1,440.6899693600553,0)"><svg viewBox="0 0 244.43135999999998 244.43135999999998" height="244.43135999999998" width="244.43135999999998"><g data-palette-color="#8d021f"><rect width="66.8112384" height="244.43135999999998" fill="#8d021f" stroke="transparent" data-fill-palette-color="accent" x="0" fill-opacity="1"></rect><rect width="66.8112384" height="244.43135999999998" fill="#8d021f" stroke="transparent" data-fill-palette-color="accent" x="81.47711999999999" fill-opacity="0.75"></rect><rect width="66.8112384" height="244.43135999999998" fill="#8d021f" stroke="transparent" data-fill-palette-color="accent" x="162.95423999999997" fill-opacity="0.5"></rect></g></svg></g></svg></g><defs></defs></svg><rect width="395.52" height="141.11003024457378" fill="none" stroke="none" visibility="hidden"></rect></g></svg></g></svg>